Coordinates
version=1
nRows=24
nColumns=24
inDegrees=yes

Units are S.I. units (second, meters, Newtons, ...)
Angles are in degrees.

endheader
time	pelvis_tilt	pelvis_list	pelvis_rotation	pelvis_tx	pelvis_ty	pelvis_tz	hip_flexion_r	hip_adduction_r	hip_rotation_r	knee_angle_r	ankle_angle_r	subtalar_angle_r	mtp_angle_r	hip_flexion_l	hip_adduction_l	hip_rotation_l	knee_angle_l	ankle_angle_l	subtalar_angle_l	mtp_angle_l	lumbar_extension	lumbar_bending	lumbar_rotation
      5.23000000	     67.84098806	     -2.01867933	      4.01626668	      0.65417686	      1.01340857	     -0.21452344	     -6.90375375	     -7.32367389	      2.91100984	    -46.95722386	    -15.79817311	     31.75357670	     71.50748332	     -7.64943933	    -14.60481474	      6.20597829	    -61.36743587	     -9.84745627	     30.39338896	     26.53994453	      0.00000000	      0.00000000	      0.00000000
      5.24000000	     67.85854562	     -2.01669980	      4.01710547	      0.65418559	      1.01340360	     -0.21450313	     -6.97218438	     -7.37982376	      3.01973632	    -47.06194942	    -15.79068629	     31.68228735	     71.51898486	     -7.68039765	    -14.61474132	      6.20161029	    -61.35888294	     -9.83606528	     30.37528304	     26.62155267	      0.00000000	      0.00000000	      0.00000000
      5.25000000	     67.87263239	     -2.01327704	      4.01827129	      0.65420184	      1.01344229	     -0.21447748	     -7.04478996	     -7.46145850	      3.11540245	    -47.19628177	    -15.79036708	     31.59381829	     71.54503893	     -7.72157185	    -14.62773196	      6.18913085	    -61.32672821	     -9.81185984	     30.35811522	     26.71376200	      0.00000000	      0.00000000	      0.00000000
      5.26000000	     67.88216467	     -2.00941348	      4.02023163	      0.65421742	      1.01353867	     -0.21446620	     -7.12171128	     -7.56815133	      3.19957132	    -47.36177797	    -15.79585825	     31.50179570	     71.58593722	     -7.76862767	    -14.64197562	      6.16985331	    -61.26661305	     -9.77695610	     30.34246775	     26.80927243	      0.00000000	      0.00000000	      0.00000000
      5.27000000	     67.88825672	     -2.00766571	      4.02239197	      0.65423564	      1.01361932	     -0.21446564	     -7.20496234	     -7.69936365	      3.27519584	    -47.56209280	    -15.80669148	     31.41758397	     71.64162802	     -7.81550419	    -14.65504993	      6.14687758	    -61.18297785	     -9.73692363	     30.32964678	     26.89906980	      0.00000000	      0.00000000	      0.00000000
      5.28000000	     67.89382701	     -2.00961773	      4.02369982	      0.65427860	      1.01355837	     -0.21444525	     -7.29569303	     -7.85396222	      3.34685883	    -47.80047031	    -15.82327201	     31.34893334	     71.71196028	     -7.85746356	    -14.66481020	      6.12562749	    -61.09164464	     -9.70004476	     30.32154118	     26.97362867	      0.00000000	      0.00000000	      0.00000000
      5.29000000	     67.90308575	     -2.01310576	      4.02344326	      0.65434939	      1.01336288	     -0.21439207	     -7.39092804	     -8.02947272	      3.42023502	    -48.07688456	    -15.84618930	     31.29938169	     71.79690012	     -7.89361260	    -14.67083391	      6.11328760	    -61.01772102	     -9.67528594	     30.32017084	     27.02442838	      0.00000000	      0.00000000	      0.00000000
      5.30000000	     67.92022532	     -2.01307884	      4.02186564	      0.65439547	      1.01325986	     -0.21433831	     -7.48396834	     -8.22240096	      3.50055021	    -48.38725293	    -15.87517652	     31.26837663	     71.89667279	     -7.92599828	    -14.67467218	      6.11616797	    -60.98662874	     -9.66926906	     30.32704391	     27.04546906	      0.00000000	      0.00000000	      0.00000000
      5.31000000	     67.94682494	     -2.00680508	      4.02044044	      0.65437605	      1.01339379	     -0.21431652	     -7.56992988	     -8.42929399	      3.59064886	    -48.72541918	    -15.90834560	     31.25206003	     72.01176640	     -7.95535429	    -14.67763809	      6.13551126	    -61.01077317	     -9.68339866	     30.34258228	     27.03437412	      0.00000000	      0.00000000	      0.00000000
      5.32000000	     67.98026170	     -1.99731188	      4.02106277	      0.65433260	      1.01358581	     -0.21431409	     -7.65018582	     -8.64745400	      3.69027696	    -49.08546036	    -15.94231096	     31.24460169	     72.14275403	     -7.97832111	    -14.67916575	      6.16562242	    -61.08186024	     -9.71304633	     30.36588818	     26.99273836	      0.00000000	      0.00000000	      0.00000000
      5.33000000	     68.01512920	     -1.99013483	      4.02385887	      0.65432311	      1.01364045	     -0.21430978	     -7.73018595	     -8.87470977	      3.79752376	    -49.46213210	    -15.97337484	     31.23982998	     72.28996862	     -7.98986038	    -14.67869016	      6.19710080	    -61.17627968	     -9.74958690	     30.39496212	     26.92564514	      0.00000000	      0.00000000	      0.00000000
      5.34000000	     68.04507313	     -1.98848744	      4.02561878	      0.65435634	      1.01360844	     -0.21430293	     -7.81561659	     -9.10863949	      3.91135624	    -49.85105353	    -15.99931139	     31.23272036	     72.45315739	     -7.98783295	    -14.67780881	      6.22194319	    -61.26751120	     -9.78373199	     30.42725062	     26.84057331	      0.00000000	      0.00000000	      0.00000000
      5.35000000	     68.06386870	     -1.99226388	      4.02118260	      0.65441257	      1.01360073	     -0.21428583	     -7.91105335	     -9.34613471	      4.03373885	    -50.24994235	    -16.02085560	     31.22021348	     72.63126606	     -7.97541714	    -14.67970459	      6.23647885	    -61.33588414	     -9.80827326	     30.46027533	     26.74605184	      0.00000000	      0.00000000	      0.00000000
      5.36000000	     68.06847573	     -1.99952645	      4.00789156	      0.65446424	      1.01358804	     -0.21424253	     -8.01778384	     -9.58362533	      4.17040271	    -50.65907775	    -16.04205943	     31.20101449	     72.82242895	     -7.96081451	    -14.68713686	      6.24150215	    -61.37253743	     -9.81953098	     30.49213211	     26.65039029	      0.00000000	      0.00000000	      0.00000000
      5.37000000	     68.06375609	     -2.00827714	      3.99007300	      0.65448544	      1.01349011	     -0.21417645	     -8.12995011	     -9.81811541	      4.32938954	    -51.07972811	    -16.06919887	     31.17446377	     73.02413850	     -7.95518629	    -14.70093269	      6.24061793	    -61.37867222	     -9.81751977	     30.52175388	     26.56071221	      0.00000000	      0.00000000	      0.00000000
      5.38000000	     68.06336035	     -2.01761897	      3.97837247	      0.65448233	      1.01337993	     -0.21410951	     -8.23462317	    -10.04835482	      4.51682984	    -51.51216618	    -16.10859545	     31.13901750	     73.23351806	     -7.96911508	    -14.71969523	      6.23808747	    -61.36214260	     -9.80512643	     30.54891868	     26.48239539	      0.00000000	      0.00000000	      0.00000000
      5.39000000	     68.08162662	     -2.02750194	      3.98144742	      0.65448970	      1.01342860	     -0.21406357	     -8.32097714	    -10.27440326	      4.73106941	    -51.95584182	    -16.16425629	     31.09108997	     73.44762711	     -8.00819876	    -14.74048554	      6.23715081	    -61.33318540	     -9.78674091	     30.57404798	     26.41889734	      0.00000000	      0.00000000	      0.00000000
      5.40000000	     68.12203099	     -2.03755315	      3.99688117	      0.65451045	      1.01362338	     -0.21405136	     -8.39186451	    -10.49611922	      4.95946862	    -52.41100688	    -16.23639266	     31.02488333	     73.66374454	     -8.07013647	    -14.75999290	      6.23926410	    -61.30086240	     -9.76686353	     30.59788985	     26.37185347	      0.00000000	      0.00000000	      0.00000000
      5.41000000	     68.17629859	     -2.04668235	      4.01304291	      0.65451060	      1.01376942	     -0.21406626	     -8.46260126	    -10.71341649	      5.18266401	    -52.87787735	    -16.32144499	     30.93340329	     73.87958514	     -8.14586228	    -14.77573318	      6.24420200	    -61.27130358	     -9.74911871	     30.62120052	     26.34131602	      0.00000000	      0.00000000	      0.00000000
      5.42000000	     68.23422357	     -2.05364640	      4.02067898	      0.65448118	      1.01378001	     -0.21407818	     -8.54728005	    -10.92797756	      5.38422276	    -53.35346621	    -16.41343889	     30.81033268	     74.09341836	     -8.22428424	    -14.78684086	      6.25073197	    -61.24772835	     -9.73582376	     30.64450996	     26.32605023	      0.00000000	      0.00000000	      0.00000000
      5.43000000	     68.29000840	     -2.05723990	      4.02031024	      0.65445028	      1.01373872	     -0.21406294	     -8.64897466	    -11.14294041	      5.55762915	    -53.83082220	    -16.50588820	     30.65205437	     74.30408101	     -8.29702600	    -14.79412126	      6.25748231	    -61.23126435	     -9.72799066	     30.66800654	     26.32386215	      0.00000000	      0.00000000	      0.00000000
      5.44000000	     68.34081144	     -2.05631668	      4.01931571	      0.65444544	      1.01372793	     -0.21403018	     -8.76073290	    -11.36037523	      5.70641290	    -54.30200679	    -16.59339512	     30.45905895	     74.51089425	     -8.35996602	    -14.79933038	      6.26357994	    -61.22164690	     -9.72554867	     30.69153948	     26.33195200	      0.00000000	      0.00000000	      0.00000000
      5.45000000	     68.38396691	     -2.05078203	      4.02455389	      0.65447518	      1.01375556	     -0.21400107	     -8.87127453	    -11.57959302	      5.83975598	    -54.76163885	    -16.67247074	     30.23626320	     74.71349916	     -8.41159657	    -14.80411634	      6.26879396	    -61.21760884	     -9.72764079	     30.71471554	     26.34726770	      0.00000000	      0.00000000	      0.00000000
      5.46000000	     68.41668412	     -2.04257880	      4.03718527	      0.65453533	      1.01380374	     -0.21397703	     -8.96951580	    -11.79733423	      5.96734593	    -55.20818735	    -16.74158029	     29.99223546	     74.91162840	     -8.45063432	    -14.80928759	      6.27326203	    -61.21725146	     -9.73293691	     30.73704529	     26.36681388	      0.00000000	      0.00000000	      0.00000000
